<svg xmlns="http://www.w3.org/2000/svg" width="122" height="58.172" viewBox="0 0 122 58.172">
  <g id="vinicunca" transform="translate(0 -133.934)">
    <path id="Path_7" data-name="Path 7" d="M202.871,308.565a.224.224,0,0,0-.317,0l-16.5,16.511h33.324Z" transform="translate(-141.724 -132.969)" fill="#fff"/>
    <path id="Path_8" data-name="Path 8" d="M120.953,186,74.47,139.522a18.953,18.953,0,0,0-13.491-5.588h0a18.954,18.954,0,0,0-13.493,5.594L1.046,186.006a3.574,3.574,0,0,0,2.528,6.1h8.4L52.4,151.642a12.044,12.044,0,0,1,8.574-3.555h0a12.044,12.044,0,0,1,8.573,3.551l40.468,40.468h8.4a3.574,3.574,0,0,0,2.527-6.1Z" transform="translate(0)" fill="#fff"/>
    <path id="Path_9" data-name="Path 9" d="M135.085,224.789a4.943,4.943,0,0,0-3.518-1.457h0a4.943,4.943,0,0,0-3.519,1.459L92.666,260.2h12.149l21.545-21.563a7.323,7.323,0,0,1,5.214-2.161h0a7.323,7.323,0,0,1,5.213,2.159L158.353,260.2H170.5Z" transform="translate(-70.586 -68.096)" fill="#fff"/>
  </g>
</svg>
